<svg version="1.1" id="Layer_1" xmlns="http://www.w3.org/2000/svg" xmlns:xlink="http://www.w3.org/1999/xlink" x="0px" y="0px"
	 width="100%" viewBox="0 0 150 170" enable-background="new 0 0 150 170" xml:space="preserve">
<path fill="#201F1F" opacity="1.000000" stroke="none" 
	d="
M78.000000,171.000000 
	C52.000000,171.000000 26.500000,171.000000 1.000000,171.000000 
	C1.000000,114.333336 1.000000,57.666668 1.000000,1.000000 
	C51.000000,1.000000 101.000000,1.000000 151.000000,1.000000 
	C151.000000,57.666668 151.000000,114.333336 151.000000,171.000000 
	C126.833336,171.000000 102.666664,171.000000 78.000000,171.000000 
M32.491364,145.003922 
	C36.156116,145.003510 39.840351,145.222504 43.476460,144.899567 
	C45.028664,144.761703 46.997566,143.881287 47.900383,142.679596 
	C61.887829,124.061928 75.712082,105.321754 89.634834,86.655235 
	C91.158714,84.612137 91.165985,83.109688 89.576904,80.993279 
	C75.690697,62.499115 61.937149,43.905388 48.098934,25.375032 
	C47.363323,24.389997 46.231136,23.009714 45.264812,22.994371 
	C34.539825,22.824066 23.811138,22.887110 11.932631,22.887110 
	C27.453329,43.837063 42.246235,63.804638 57.118385,83.879173 
	C42.099258,104.171463 27.241476,124.245758 11.877533,145.003922 
	C19.183046,145.003922 25.338762,145.003922 32.491364,145.003922 
M118.589279,120.880661 
	C113.800331,114.469200 109.011383,108.057739 103.981316,101.323471 
	C97.915993,109.496086 92.382973,116.951454 86.721214,124.580284 
	C91.493134,130.941544 96.141357,137.185852 100.866684,143.371277 
	C101.407227,144.078857 102.374908,144.911926 103.151703,144.919159 
	C114.003563,145.020309 124.856674,144.987732 136.420288,144.987732 
	C130.235474,136.601196 124.641747,129.016144 118.589279,120.880661 
M118.955795,46.478848 
	C124.593605,38.816769 130.231415,31.154692 136.358917,22.827087 
	C124.901840,22.827087 114.460083,22.790596 104.019516,22.885309 
	C103.010277,22.894464 101.652382,23.440710 101.059311,24.205334 
	C96.199066,30.471535 91.481873,36.848701 86.709755,43.207478 
	C92.543297,51.081562 98.122795,58.612728 103.980232,66.519066 
	C109.057228,59.739716 113.803009,53.402626 118.955795,46.478848 
z"/>
<path fill="#EAA766" opacity="1.000000" stroke="none" 
	d="
M31.992920,145.003922 
	C25.338762,145.003922 19.183046,145.003922 11.877533,145.003922 
	C27.241476,124.245758 42.099258,104.171463 57.118385,83.879173 
	C42.246235,63.804638 27.453329,43.837063 11.932631,22.887110 
	C23.811138,22.887110 34.539825,22.824066 45.264812,22.994371 
	C46.231136,23.009714 47.363323,24.389997 48.098934,25.375032 
	C61.937149,43.905388 75.690697,62.499115 89.576904,80.993279 
	C91.165985,83.109688 91.158714,84.612137 89.634834,86.655235 
	C75.712082,105.321754 61.887829,124.061928 47.900383,142.679596 
	C46.997566,143.881287 45.028664,144.761703 43.476460,144.899567 
	C39.840351,145.222504 36.156116,145.003510 31.992920,145.003922 
z"/>
<path fill="#F1CA90" opacity="1.000000" stroke="none" 
	d="
M118.818649,121.155876 
	C124.641747,129.016144 130.235474,136.601196 136.420288,144.987732 
	C124.856674,144.987732 114.003563,145.020309 103.151703,144.919159 
	C102.374908,144.911926 101.407227,144.078857 100.866684,143.371277 
	C96.141357,137.185852 91.493134,130.941544 86.721214,124.580284 
	C92.382973,116.951454 97.915993,109.496086 103.981316,101.323471 
	C109.011383,108.057739 113.800331,114.469200 118.818649,121.155876 
z"/>
<path fill="#F1CA90" opacity="1.000000" stroke="none" 
	d="
M118.752289,46.772194 
	C113.803009,53.402626 109.057228,59.739716 103.980232,66.519066 
	C98.122795,58.612728 92.543297,51.081562 86.709755,43.207478 
	C91.481873,36.848701 96.199066,30.471535 101.059311,24.205334 
	C101.652382,23.440710 103.010277,22.894464 104.019516,22.885309 
	C114.460083,22.790596 124.901840,22.827087 136.358917,22.827087 
	C130.231415,31.154692 124.593605,38.816769 118.752289,46.772194 
z"/>
</svg>