<svg version="1.1" id="Layer_1" xmlns="http://www.w3.org/2000/svg" xmlns:xlink="http://www.w3.org/1999/xlink" x="0px" y="0px"
	 width="100%" viewBox="0 0 1011 395" enable-background="new 0 0 1011 395" xml:space="preserve">
<path fill="#1F1F1F" opacity="1.000000" stroke="none" 
	d="
M692.000000,396.000000 
	C461.333344,396.000000 231.166672,396.000000 1.000000,396.000000 
	C1.000000,264.333344 1.000000,132.666672 1.000000,1.000000 
	C338.000000,1.000000 675.000000,1.000000 1012.000000,1.000000 
	C1012.000000,132.666672 1012.000000,264.333344 1012.000000,396.000000 
	C905.500000,396.000000 799.000000,396.000000 692.000000,396.000000 
M346.260132,146.685135 
	C344.294769,148.329224 342.329407,149.973297 339.831909,152.062546 
	C339.831909,148.657639 339.831909,145.899811 339.831909,143.177094 
	C332.204041,143.177094 324.955780,143.177094 317.913391,143.177094 
	C317.913391,183.255264 317.913391,222.973465 317.913391,262.596649 
	C325.436951,262.596649 332.520294,262.596649 340.120178,262.596649 
	C340.120178,248.899902 340.120178,235.536911 340.120178,221.068497 
	C345.756958,227.587997 352.114624,231.083450 359.386078,231.447342 
	C368.127502,231.884781 377.091614,232.030289 385.668945,230.582184 
	C397.606384,228.566803 406.952271,221.668137 411.662659,210.208252 
	C417.427826,196.182358 417.588654,181.692169 413.116577,167.181564 
	C410.562805,158.895386 405.828217,151.986679 398.193573,147.975327 
	C381.488464,139.198196 364.248047,138.501953 346.260132,146.685135 
M457.911804,208.953018 
	C449.307220,205.830399 444.287628,199.946808 443.469452,190.006088 
	C468.811005,190.006088 493.857025,190.006088 519.068237,190.006088 
	C519.490417,176.182434 517.043152,163.933441 507.272369,154.128708 
	C498.823212,145.650223 488.141418,142.360687 476.598633,141.500488 
	C461.479340,140.373734 446.600281,141.617218 434.709229,152.178543 
	C419.280060,165.882294 418.447876,183.745438 422.804077,202.308426 
	C425.504456,213.815430 432.643524,222.374115 443.494446,227.101303 
	C460.653564,234.576630 478.295105,234.452011 495.425629,227.424500 
	C507.629730,222.417969 515.162109,212.713776 517.911133,199.161743 
	C512.106079,199.161743 506.614014,199.301636 501.132874,199.117004 
	C496.834930,198.972214 493.329285,199.339371 490.487000,203.539932 
	C488.807068,206.022629 485.273315,207.628540 482.247437,208.748962 
	C474.526306,211.607971 466.583191,211.391083 457.911804,208.953018 
M738.657227,225.942612 
	C748.145996,231.090759 758.417664,232.513519 769.025391,232.292343 
	C781.782959,232.026352 793.778259,229.371536 803.632996,220.607956 
	C809.950256,214.990128 813.746948,207.941925 815.529846,198.992615 
	C804.414612,200.317032 794.187256,196.646210 784.406799,206.076843 
	C776.129639,214.057831 763.406799,212.284363 752.637146,207.698685 
	C745.340454,204.591797 741.685547,198.420502 741.041992,189.988220 
	C766.368774,189.988220 791.435425,189.988220 816.442200,189.988220 
	C819.085510,168.175430 807.157288,149.837097 786.709900,143.803223 
	C777.322632,141.033127 767.769226,140.586456 758.080994,141.752472 
	C734.244385,144.621292 720.614624,157.889053 718.555847,181.686996 
	C717.007385,199.585907 721.412781,215.444824 738.657227,225.942612 
M649.650879,192.874969 
	C651.597046,193.313370 653.531738,193.812546 655.491272,194.179733 
	C664.295654,195.829636 673.128906,197.335236 681.905579,199.119568 
	C685.509766,199.852310 688.771423,201.819305 688.631531,205.953094 
	C688.498657,209.879517 685.165710,211.586075 681.738098,212.018509 
	C676.485535,212.681152 671.156982,213.185837 665.875305,213.072784 
	C657.136658,212.885757 649.375183,210.573639 646.567078,201.261475 
	C638.575439,201.261475 631.023193,201.261475 623.419006,201.261475 
	C624.713440,212.065811 629.749695,220.487152 639.057861,225.096497 
	C658.402710,234.675903 678.515808,235.344254 698.323303,226.638107 
	C707.906738,222.425827 713.922241,214.870697 712.967407,203.403961 
	C712.056763,192.468170 705.395569,186.228638 695.670898,183.235855 
	C688.088623,180.902390 680.145020,179.744919 672.364868,178.051514 
	C666.540161,176.783676 660.537842,176.016998 654.949707,174.066925 
	C649.448181,172.147095 649.166321,166.700638 653.923523,163.356430 
	C654.998718,162.600632 656.245117,162.036774 657.483093,161.572113 
	C669.920288,156.903915 681.810791,161.266495 687.973816,172.721008 
	C695.258606,172.721008 702.543396,172.721008 710.167603,172.721008 
	C708.403076,160.882538 702.143555,152.432953 691.939697,147.303848 
	C676.558716,139.572418 660.417603,139.217087 644.543945,145.367294 
	C629.445923,151.217010 623.677124,164.634354 629.580505,178.298386 
	C633.206177,186.690399 640.741150,190.154572 649.650879,192.874969 
M618.177124,217.490952 
	C618.055664,204.172180 618.367126,190.831848 617.704651,177.540039 
	C616.849426,160.382553 605.537964,146.834625 588.855042,142.945312 
	C574.312866,139.555069 560.133362,139.856308 547.886597,151.369904 
	C547.619080,148.234207 547.402039,145.689301 547.189209,143.194305 
	C539.665161,143.194305 532.444336,143.194305 525.358215,143.194305 
	C525.358215,172.608139 525.358215,201.650436 525.358215,230.665497 
	C532.813538,230.665497 539.901489,230.665497 547.515930,230.665497 
	C547.515930,228.600922 547.515869,226.802750 547.515930,225.004562 
	C547.516541,211.182312 547.440796,197.359512 547.543457,183.538010 
	C547.617249,173.596207 552.108215,166.696198 561.204163,164.560089 
	C566.862549,163.231247 573.162109,162.862045 578.862732,163.852737 
	C590.694031,165.908829 595.760010,172.794800 595.809814,184.850021 
	C595.865479,198.338974 595.822754,211.828323 595.822876,225.317505 
	C595.822937,227.076675 595.822876,228.835831 595.822876,230.648926 
	C603.573914,230.648926 610.647888,230.648926 618.177124,230.648926 
	C618.177124,226.413055 618.177124,222.450134 618.177124,217.490952 
M259.322144,166.147797 
	C254.270920,159.358856 249.267014,152.533722 244.124924,145.814301 
	C243.197067,144.601791 241.730423,143.023590 240.462753,142.977310 
	C233.083984,142.707932 225.690369,142.845413 217.496017,142.845413 
	C218.734375,144.731506 219.384064,145.834885 220.142014,146.858047 
	C229.035629,158.863510 237.810410,170.961258 246.941513,182.783676 
	C249.370346,185.928391 249.172104,187.831543 246.846710,190.864853 
	C237.947266,202.473404 229.361832,214.322891 220.680923,226.098450 
	C219.676849,227.460495 218.808823,228.922836 217.483536,230.938126 
	C225.337952,230.938126 232.161148,231.103592 238.965683,230.820282 
	C240.639542,230.750580 242.797134,229.630127 243.808945,228.293671 
	C253.543365,215.435928 263.024963,202.387039 272.726501,189.503967 
	C274.376862,187.312378 274.049774,185.880096 272.532440,183.913422 
	C268.171692,178.261276 263.985291,172.474609 259.322144,166.147797 
M295.454590,142.817123 
	C291.964325,142.817596 288.460266,142.638199 284.990387,142.904556 
	C283.545197,143.015503 281.726837,143.706970 280.846497,144.770493 
	C277.480072,148.837494 274.425995,153.163055 271.173401,157.501297 
	C275.339691,163.146652 279.330872,168.554749 283.601196,174.341019 
	C291.404236,163.795624 298.884705,153.686188 306.927277,142.817123 
	C302.943970,142.817123 299.679474,142.817123 295.454590,142.817123 
M299.125732,220.321198 
	C294.039795,213.455734 288.953888,206.590271 283.613464,199.381302 
	C282.139069,201.326523 281.042389,202.769241 279.950073,204.215195 
	C270.477753,216.754272 270.461945,216.768097 280.698486,228.786926 
	C281.476257,229.700134 282.694000,230.813766 283.731140,230.838654 
	C291.099426,231.015472 298.473938,230.932846 306.909393,230.932846 
	C304.007019,226.942764 301.799103,223.907410 299.125732,220.321198 
z"/>
<path fill="#F1CA90" opacity="1.000000" stroke="none" 
	d="
M346.557343,146.464691 
	C364.248047,138.501953 381.488464,139.198196 398.193573,147.975327 
	C405.828217,151.986679 410.562805,158.895386 413.116577,167.181564 
	C417.588654,181.692169 417.427826,196.182358 411.662659,210.208252 
	C406.952271,221.668137 397.606384,228.566803 385.668945,230.582184 
	C377.091614,232.030289 368.127502,231.884781 359.386078,231.447342 
	C352.114624,231.083450 345.756958,227.587997 340.120178,221.068497 
	C340.120178,235.536911 340.120178,248.899902 340.120178,262.596649 
	C332.520294,262.596649 325.436951,262.596649 317.913391,262.596649 
	C317.913391,222.973465 317.913391,183.255264 317.913391,143.177094 
	C324.955780,143.177094 332.204041,143.177094 339.831909,143.177094 
	C339.831909,145.899811 339.831909,148.657639 339.831909,152.062546 
	C342.329407,149.973297 344.294769,148.329224 346.557343,146.464691 
M382.865265,166.343552 
	C372.274139,161.678635 361.509186,161.284973 351.067810,166.278275 
	C342.520081,170.366013 338.510590,180.546570 340.172455,191.526474 
	C341.619141,201.084824 348.129822,208.202164 358.032043,209.762238 
	C363.353882,210.600677 368.986938,210.604935 374.334167,209.893250 
	C384.110474,208.592041 391.074554,202.042404 392.882416,193.606354 
	C395.368439,182.006012 392.101776,172.744583 382.865265,166.343552 
z"/>
<path fill="#F3CB91" opacity="1.000000" stroke="none" 
	d="
M458.296082,209.079437 
	C466.583191,211.391083 474.526306,211.607971 482.247437,208.748962 
	C485.273315,207.628540 488.807068,206.022629 490.487000,203.539932 
	C493.329285,199.339371 496.834930,198.972214 501.132874,199.117004 
	C506.614014,199.301636 512.106079,199.161743 517.911133,199.161743 
	C515.162109,212.713776 507.629730,222.417969 495.425629,227.424500 
	C478.295105,234.452011 460.653564,234.576630 443.494446,227.101303 
	C432.643524,222.374115 425.504456,213.815430 422.804077,202.308426 
	C418.447876,183.745438 419.280060,165.882294 434.709229,152.178543 
	C446.600281,141.617218 461.479340,140.373734 476.598633,141.500488 
	C488.141418,142.360687 498.823212,145.650223 507.272369,154.128708 
	C517.043152,163.933441 519.490417,176.182434 519.068237,190.006088 
	C493.857025,190.006088 468.811005,190.006088 443.469452,190.006088 
	C444.287628,199.946808 449.307220,205.830399 458.296082,209.079437 
M473.249054,162.927811 
	C461.761230,161.916870 449.404510,165.914658 447.284668,173.596146 
	C462.459900,173.596146 477.640717,173.596146 493.408569,173.596146 
	C488.639069,166.125504 481.722107,163.969574 473.249054,162.927811 
z"/>
<path fill="#F3CB91" opacity="1.000000" stroke="none" 
	d="
M738.332703,225.769440 
	C721.412781,215.444824 717.007385,199.585907 718.555847,181.686996 
	C720.614624,157.889053 734.244385,144.621292 758.080994,141.752472 
	C767.769226,140.586456 777.322632,141.033127 786.709900,143.803223 
	C807.157288,149.837097 819.085510,168.175430 816.442200,189.988220 
	C791.435425,189.988220 766.368774,189.988220 741.041992,189.988220 
	C741.685547,198.420502 745.340454,204.591797 752.637146,207.698685 
	C763.406799,212.284363 776.129639,214.057831 784.406799,206.076843 
	C794.187256,196.646210 804.414612,200.317032 815.529846,198.992615 
	C813.746948,207.941925 809.950256,214.990128 803.632996,220.607956 
	C793.778259,229.371536 781.782959,232.026352 769.025391,232.292343 
	C758.417664,232.513519 748.145996,231.090759 738.332703,225.769440 
M785.128906,167.234253 
	C773.946411,159.407455 747.561340,162.096375 744.746216,173.940369 
	C752.409180,173.940369 760.044006,173.940353 767.678833,173.940353 
	C775.340576,173.940353 783.002380,173.940369 790.664124,173.940369 
	C790.975403,173.348328 791.286621,172.756302 791.597839,172.164261 
	C789.635620,170.670837 787.673401,169.177414 785.128906,167.234253 
z"/>
<path fill="#F2CA90" opacity="1.000000" stroke="none" 
	d="
M649.264099,192.764343 
	C640.741150,190.154572 633.206177,186.690399 629.580505,178.298386 
	C623.677124,164.634354 629.445923,151.217010 644.543945,145.367294 
	C660.417603,139.217087 676.558716,139.572418 691.939697,147.303848 
	C702.143555,152.432953 708.403076,160.882538 710.167603,172.721008 
	C702.543396,172.721008 695.258606,172.721008 687.972961,172.720123 
	C681.810791,161.266495 669.920288,156.903915 657.483093,161.572113 
	C656.245117,162.036774 654.998718,162.600632 653.923523,163.356430 
	C649.166321,166.700638 649.448181,172.147095 654.949707,174.066925 
	C660.537842,176.016998 666.540161,176.783676 672.364868,178.051514 
	C680.145020,179.744919 688.088623,180.902390 695.670898,183.235855 
	C705.395569,186.228638 712.056763,192.468170 712.967407,203.403961 
	C713.922241,214.870697 707.906738,222.425827 698.323303,226.638107 
	C678.515808,235.344254 658.402710,234.675903 639.057861,225.096497 
	C629.749695,220.487152 624.713440,212.065811 623.419006,201.261475 
	C631.023193,201.261475 638.575439,201.261475 646.567078,201.261475 
	C649.375183,210.573639 657.136658,212.885757 665.875305,213.072784 
	C671.156982,213.185837 676.485535,212.681152 681.738098,212.018509 
	C685.165710,211.586075 688.498657,209.879517 688.631531,205.953094 
	C688.771423,201.819305 685.509766,199.852310 681.905579,199.119568 
	C673.128906,197.335236 664.295654,195.829636 655.491272,194.179733 
	C653.531738,193.812546 651.597046,193.313370 649.264099,192.764343 
z"/>
<path fill="#F2CB91" opacity="1.000000" stroke="none" 
	d="
M618.177124,217.989075 
	C618.177124,222.450134 618.177124,226.413055 618.177124,230.648926 
	C610.647888,230.648926 603.573914,230.648926 595.822876,230.648926 
	C595.822876,228.835831 595.822937,227.076675 595.822876,225.317505 
	C595.822754,211.828323 595.865479,198.338974 595.809814,184.850021 
	C595.760010,172.794800 590.694031,165.908829 578.862732,163.852737 
	C573.162109,162.862045 566.862549,163.231247 561.204163,164.560089 
	C552.108215,166.696198 547.617249,173.596207 547.543457,183.538010 
	C547.440796,197.359512 547.516541,211.182312 547.515930,225.004562 
	C547.515869,226.802750 547.515930,228.600922 547.515930,230.665497 
	C539.901489,230.665497 532.813538,230.665497 525.358215,230.665497 
	C525.358215,201.650436 525.358215,172.608139 525.358215,143.194305 
	C532.444336,143.194305 539.665161,143.194305 547.189209,143.194305 
	C547.402039,145.689301 547.619080,148.234207 547.886597,151.369904 
	C560.133362,139.856308 574.312866,139.555069 588.855042,142.945312 
	C605.537964,146.834625 616.849426,160.382553 617.704651,177.540039 
	C618.367126,190.831848 618.055664,204.172180 618.177124,217.989075 
z"/>
<path fill="#E8A666" opacity="1.000000" stroke="none" 
	d="
M259.526245,166.444305 
	C263.985291,172.474609 268.171692,178.261276 272.532440,183.913422 
	C274.049774,185.880096 274.376862,187.312378 272.726501,189.503967 
	C263.024963,202.387039 253.543365,215.435928 243.808945,228.293671 
	C242.797134,229.630127 240.639542,230.750580 238.965683,230.820282 
	C232.161148,231.103592 225.337952,230.938126 217.483536,230.938126 
	C218.808823,228.922836 219.676849,227.460495 220.680923,226.098450 
	C229.361832,214.322891 237.947266,202.473404 246.846710,190.864853 
	C249.172104,187.831543 249.370346,185.928391 246.941513,182.783676 
	C237.810410,170.961258 229.035629,158.863510 220.142014,146.858047 
	C219.384064,145.834885 218.734375,144.731506 217.496017,142.845413 
	C225.690369,142.845413 233.083984,142.707932 240.462753,142.977310 
	C241.730423,143.023590 243.197067,144.601791 244.124924,145.814301 
	C249.267014,152.533722 254.270920,159.358856 259.526245,166.444305 
z"/>
<path fill="#F0C990" opacity="1.000000" stroke="none" 
	d="
M295.934784,142.817123 
	C299.679474,142.817123 302.943970,142.817123 306.927277,142.817123 
	C298.884705,153.686188 291.404236,163.795624 283.601196,174.341019 
	C279.330872,168.554749 275.339691,163.146652 271.173401,157.501297 
	C274.425995,153.163055 277.480072,148.837494 280.846497,144.770493 
	C281.726837,143.706970 283.545197,143.015503 284.990387,142.904556 
	C288.460266,142.638199 291.964325,142.817596 295.934784,142.817123 
z"/>
<path fill="#EFC88F" opacity="1.000000" stroke="none" 
	d="
M299.358459,220.596634 
	C301.799103,223.907410 304.007019,226.942764 306.909393,230.932846 
	C298.473938,230.932846 291.099426,231.015472 283.731140,230.838654 
	C282.694000,230.813766 281.476257,229.700134 280.698486,228.786926 
	C270.461945,216.768097 270.477753,216.754272 279.950073,204.215195 
	C281.042389,202.769241 282.139069,201.326523 283.613464,199.381302 
	C288.953888,206.590271 294.039795,213.455734 299.358459,220.596634 
z"/>
<path fill="#202020" opacity="1.000000" stroke="none" 
	d="
M383.151917,166.587463 
	C392.101776,172.744583 395.368439,182.006012 392.882416,193.606354 
	C391.074554,202.042404 384.110474,208.592041 374.334167,209.893250 
	C368.986938,210.604935 363.353882,210.600677 358.032043,209.762238 
	C348.129822,208.202164 341.619141,201.084824 340.172455,191.526474 
	C338.510590,180.546570 342.520081,170.366013 351.067810,166.278275 
	C361.509186,161.284973 372.274139,161.678635 383.151917,166.587463 
z"/>
<path fill="#252422" opacity="1.000000" stroke="none" 
	d="
M473.706238,162.953079 
	C481.722107,163.969574 488.639069,166.125504 493.408569,173.596146 
	C477.640717,173.596146 462.459900,173.596146 447.284668,173.596146 
	C449.404510,165.914658 461.761230,161.916870 473.706238,162.953079 
z"/>
<path fill="#262523" opacity="1.000000" stroke="none" 
	d="
M785.420044,167.459106 
	C787.673401,169.177414 789.635620,170.670837 791.597839,172.164261 
	C791.286621,172.756302 790.975403,173.348328 790.664124,173.940369 
	C783.002380,173.940369 775.340576,173.940353 767.678833,173.940353 
	C760.044006,173.940353 752.409180,173.940369 744.746216,173.940369 
	C747.561340,162.096375 773.946411,159.407455 785.420044,167.459106 
z"/>
</svg>